<?xml version="1.0" standalone="no"?>
<!DOCTYPE svg PUBLIC "-//W3C//DTD SVG 20010904//EN"
 "http://www.w3.org/TR/2001/REC-SVG-20010904/DTD/svg10.dtd">
<svg version="1.0" xmlns="http://www.w3.org/2000/svg"
 width="501.000000pt" height="512.000000pt" viewBox="0 0 501.000000 512.000000"
 preserveAspectRatio="xMidYMid meet">

<g transform="translate(0.000000,512.000000) scale(0.100000,-0.100000)"
fill="#000000" stroke="none">
<path d="M1778 5080 c-51 -15 -87 -50 -120 -118 -106 -215 20 -510 197 -461
110 31 185 201 156 355 -21 115 -68 187 -143 219 -41 17 -50 17 -90 5z"/>
<path d="M599 4601 c-77 -25 -117 -93 -105 -179 21 -154 194 -314 344 -316
110 -1 167 59 159 169 -6 77 -43 152 -108 217 -79 79 -218 132 -290 109z"/>
<path d="M2919 4597 c-150 -42 -283 -200 -283 -339 -1 -31 2 -59 5 -62 3 -3
46 3 95 14 49 11 141 23 204 27 129 7 124 4 171 98 83 170 -19 310 -192 262z"/>
<path d="M1660 4283 c-237 -46 -414 -139 -566 -295 -181 -185 -269 -388 -281
-643 -6 -139 10 -249 57 -377 34 -94 99 -214 109 -201 4 4 29 41 56 82 28 40
87 113 132 161 l83 88 -16 43 c-8 24 -18 80 -21 125 -19 264 151 512 412 601
70 25 94 28 195 27 76 -1 132 -6 164 -17 l49 -16 61 48 c87 68 145 106 236
155 l79 42 -67 40 c-174 103 -290 135 -502 139 -85 2 -166 1 -180 -2z"/>
<path d="M2839 3925 c-249 -47 -478 -166 -654 -340 -71 -71 -184 -212 -174
-218 2 -2 48 -13 101 -24 114 -25 220 -72 332 -147 83 -55 240 -195 276 -247
20 -27 17 -26 -51 16 -92 57 -194 99 -306 127 -72 18 -115 22 -238 22 -130 -1
-164 -4 -250 -27 -178 -48 -325 -130 -457 -255 -260 -248 -362 -606 -273 -957
78 -308 321 -576 621 -684 190 -69 128 -66 1369 -66 l1120 0 88 22 c348 89
593 349 653 695 75 430 -215 858 -650 958 -177 41 -391 15 -574 -70 -45 -21
-96 -48 -112 -60 -39 -28 -38 -16 6 50 66 98 183 203 283 254 79 39 118 51
268 82 l22 4 -26 73 c-116 325 -371 591 -687 717 -158 63 -254 82 -441 86
-119 2 -193 -1 -246 -11z"/>
<path d="M190 3486 c-93 -26 -159 -78 -180 -142 -44 -131 110 -243 319 -232
103 5 171 32 226 88 33 33 39 47 43 92 5 63 -19 105 -83 150 -76 52 -222 72
-325 44z"/>
<path d="M745 2482 c-66 -27 -111 -60 -158 -112 -110 -123 -127 -270 -39 -338
30 -23 45 -27 101 -27 45 1 81 7 112 22 l46 21 6 138 c4 89 13 169 26 222 12
46 21 85 21 88 0 11 -79 1 -115 -14z"/>
<path d="M2104 739 c-240 -282 -282 -467 -136 -614 120 -122 324 -119 437 7
115 127 98 281 -53 494 -53 74 -159 194 -171 194 -4 0 -39 -36 -77 -81z"/>
<path d="M3128 758 c-87 -99 -146 -185 -191 -278 -37 -75 -42 -93 -42 -155 0
-268 345 -392 524 -189 109 125 91 281 -57 490 -52 74 -159 194 -171 194 -4 0
-32 -28 -63 -62z"/>
<path d="M4138 758 c-86 -98 -145 -183 -191 -276 -38 -77 -42 -93 -42 -156 1
-85 24 -145 80 -201 119 -119 312 -119 431 -1 124 125 110 286 -44 501 -53 75
-159 195 -171 195 -4 0 -32 -28 -63 -62z"/>
</g>
</svg>
